<svg width="872" height="281" viewBox="0 0 872 281" fill="none" xmlns="http://www.w3.org/2000/svg">
<path d="M55.8736 241.053C54.3401 241.721 52.6169 240.875 52.2213 239.26C50.5893 232.598 47.3095 216.304 51.2421 205.938C54.6114 197.056 60.1641 189.427 67.0293 184.742C67.88 184.162 68.9889 184.148 69.8897 184.649L92.455 197.194C93.4224 197.732 93.9952 198.779 93.8727 199.873C92.7917 209.523 89.0696 216.435 82.541 223.968C75.7083 231.851 61.8598 238.445 55.8736 241.053Z" fill="url(#paint0_linear_2002_23)"/>
<path fill-rule="evenodd" clip-rule="evenodd" d="M68.674 189.378C63.2234 193.47 58.6068 199.909 55.6897 207.598C54.1032 211.781 53.8654 217.592 54.3801 223.588C54.7724 228.158 55.5683 232.493 56.2721 235.702C59.0891 234.407 62.7628 232.597 66.478 230.426C71.3999 227.549 76.0341 224.244 78.9379 220.893C84.6996 214.245 87.8584 208.461 88.9815 200.668L68.674 189.378ZM64.3364 180.857C66.7926 179.181 69.8568 179.226 72.2126 180.536L94.7779 193.081C97.3264 194.497 98.9398 197.323 98.5959 200.394C97.3828 211.223 93.1202 218.993 86.1443 227.042C82.2153 231.575 76.5089 235.508 71.3018 238.551C66.0175 241.64 60.8742 244.024 57.7839 245.37C53.5433 247.217 48.6971 244.838 47.6036 240.374C46.7567 236.917 45.4707 230.921 44.9099 224.388C44.3598 217.979 44.4485 210.461 46.7945 204.276C50.4308 194.691 56.5116 186.197 64.3364 180.857Z" fill="url(#paint1_linear_2002_23)"/>
<path fill-rule="evenodd" clip-rule="evenodd" d="M157.138 50.7014C152.49 52.4888 146.164 55.1908 139.474 58.8405C129.873 64.0779 119.97 71.0255 113.075 79.6424C104.472 90.3948 96.9581 107.376 91.1342 123.834L91.2461 124.082L91.0093 124.187C90.9575 124.334 90.9059 124.481 90.8544 124.628C85.0613 141.134 81.251 156.2 79.8634 161.996C78.6626 167.012 73.8144 170.273 68.6985 169.569C64.7516 169.026 57.6757 168.164 52.7945 168.132C49.6246 168.111 45.2493 168.432 41.1351 168.835C36.1064 169.327 32.3646 166.21 30.8603 162.791C29.3517 159.361 29.598 154.483 33.457 151.171C40.997 144.7 51.5342 135.33 56.4388 129.604C60.5503 124.803 66.3643 120.905 70.7129 118.346C72.9627 117.022 74.9821 115.964 76.445 115.234C77.1786 114.868 77.7779 114.581 78.203 114.382C78.4158 114.283 78.5853 114.205 78.7067 114.149C78.7675 114.122 78.8162 114.1 78.8523 114.084L78.897 114.064L78.9178 114.054L78.9202 114.053C78.9202 114.053 78.9213 114.053 79.2565 114.796L79.2568 114.795L78.9223 114.052L79.6537 113.728C85.3658 98.4552 92.8359 82.187 101.909 70.8473C110.46 60.16 122.19 52.1267 132.605 46.4451C143.09 40.7259 152.699 37.1451 157.426 35.5366C163.13 33.5953 169.102 37.1202 170.222 42.9059C171.136 47.6253 172.805 57.2922 173.581 68.5125C174.351 79.6327 174.283 92.7899 171.442 104.278C167.837 118.85 158.617 134.573 148.986 148.149L149.274 150.9L146.825 151.152C149.274 150.9 149.274 150.902 149.274 150.902L149.277 150.929L149.282 150.986C149.287 151.034 149.294 151.101 149.302 151.186C149.318 151.356 149.341 151.598 149.367 151.905C149.421 152.519 149.491 153.396 149.561 154.479C149.701 156.641 149.845 159.649 149.857 163.049C149.881 169.612 149.432 178.518 147.029 185.505C144.822 191.919 142.17 203.315 140.323 211.855C139.24 216.858 134.981 219.411 131.195 219.708C127.419 220.004 122.836 218.163 120.942 213.449C119.335 209.451 117.493 205.143 115.874 201.995C113.71 197.786 109.557 192.851 106.959 189.993C103.474 186.159 103.429 180.198 107.126 176.344C111.417 171.87 122.363 160.11 133.135 145.75C144.053 131.196 154.163 114.785 157.596 100.907C159.922 91.5025 160.088 80.0371 159.358 69.4811C158.852 62.164 157.934 55.5291 157.138 50.7014ZM135.581 165.628C135.473 171.211 134.914 176.931 133.536 180.936C132.091 185.139 130.55 190.945 129.155 196.721C128.96 196.326 128.766 195.941 128.574 195.566C126.283 191.111 122.784 186.593 120.042 183.36C123.758 179.386 129.379 173.175 135.581 165.628ZM72.823 133.871C70.6872 135.422 68.7391 137.086 67.3027 138.763C63.6096 143.075 57.5706 148.785 51.7734 153.99C52.1529 153.986 52.5251 153.985 52.8885 153.987C57.2734 154.016 62.7511 154.567 66.8911 155.07C68.1404 150.101 70.1417 142.576 72.823 133.871Z" fill="url(#paint2_linear_2002_23)"/>
<path d="M789.057 214.591C786.602 214.591 784.299 214.394 782.148 214C780.027 213.636 778.269 213.167 776.875 212.591L781.239 198.136C783.511 198.833 785.557 199.212 787.375 199.273C789.224 199.333 790.814 198.909 792.148 198C793.511 197.091 794.617 195.545 795.466 193.364L796.602 190.409L771.557 118.591H791.921L806.375 169.864H807.102L821.693 118.591H842.193L815.057 195.954C813.754 199.712 811.981 202.985 809.739 205.773C807.527 208.591 804.724 210.757 801.33 212.273C797.936 213.818 793.845 214.591 789.057 214.591Z" fill="#281A15"/>
<path d="M765.273 118.591V133.136H722.182V118.591H765.273ZM732.046 188.409V113.545C732.046 108.485 733.03 104.288 735 100.954C737 97.6211 739.727 95.1211 743.182 93.4545C746.636 91.7878 750.561 90.9545 754.955 90.9545C757.924 90.9545 760.636 91.1817 763.091 91.6363C765.576 92.0908 767.424 92.4999 768.636 92.8636L765.182 107.409C764.424 107.167 763.485 106.939 762.364 106.727C761.273 106.515 760.152 106.409 759 106.409C756.152 106.409 754.167 107.076 753.046 108.409C751.924 109.712 751.364 111.545 751.364 113.909V188.409H732.046Z" fill="#281A15"/>
<path d="M692.852 188.409V118.591H712.216V188.409H692.852ZM702.58 109.591C699.701 109.591 697.231 108.636 695.17 106.727C693.14 104.788 692.125 102.47 692.125 99.7727C692.125 97.1061 693.14 94.8182 695.17 92.9091C697.231 90.9697 699.701 90 702.58 90C705.458 90 707.913 90.9697 709.943 92.9091C712.004 94.8182 713.034 97.1061 713.034 99.7727C713.034 102.47 712.004 104.788 709.943 106.727C707.913 108.636 705.458 109.591 702.58 109.591Z" fill="#281A15"/>
<path d="M632.341 148.045V188.409H612.977V95.3181H631.796V130.909H632.614C634.189 126.788 636.735 123.561 640.25 121.227C643.765 118.864 648.174 117.682 653.477 117.682C658.326 117.682 662.553 118.742 666.159 120.864C669.795 122.954 672.614 125.97 674.614 129.909C676.644 133.818 677.644 138.5 677.614 143.954V188.409H658.25V147.409C658.28 143.106 657.189 139.758 654.977 137.364C652.795 134.97 649.735 133.773 645.796 133.773C643.159 133.773 640.826 134.333 638.796 135.454C636.796 136.576 635.22 138.212 634.068 140.364C632.947 142.485 632.371 145.045 632.341 148.045Z" fill="#281A15"/>
<path d="M569.398 189.773C562.246 189.773 556.095 188.258 550.943 185.227C545.822 182.167 541.883 177.924 539.125 172.5C536.398 167.076 535.034 160.833 535.034 153.773C535.034 146.621 536.413 140.348 539.171 134.954C541.958 129.53 545.913 125.303 551.034 122.273C556.155 119.212 562.246 117.682 569.307 117.682C575.398 117.682 580.731 118.788 585.307 121C589.883 123.212 593.504 126.318 596.171 130.318C598.837 134.318 600.307 139.015 600.58 144.409H582.307C581.792 140.924 580.428 138.121 578.216 136C576.034 133.848 573.171 132.773 569.625 132.773C566.625 132.773 564.004 133.591 561.761 135.227C559.549 136.833 557.822 139.182 556.58 142.273C555.337 145.364 554.716 149.106 554.716 153.5C554.716 157.954 555.322 161.742 556.534 164.864C557.777 167.985 559.519 170.364 561.761 172C564.004 173.636 566.625 174.454 569.625 174.454C571.837 174.454 573.822 174 575.58 173.091C577.368 172.182 578.837 170.864 579.989 169.136C581.171 167.379 581.943 165.273 582.307 162.818H600.58C600.277 168.151 598.822 172.848 596.216 176.909C593.64 180.939 590.08 184.091 585.534 186.364C580.989 188.636 575.61 189.773 569.398 189.773Z" fill="#281A15"/>
<path d="M477.591 148.045V188.409H458.227V118.591H476.682V130.909H477.5C479.045 126.848 481.636 123.636 485.273 121.273C488.909 118.879 493.318 117.682 498.5 117.682C503.348 117.682 507.576 118.742 511.182 120.864C514.788 122.985 517.591 126.015 519.591 129.954C521.591 133.864 522.591 138.53 522.591 143.954V188.409H503.227V147.409C503.258 143.136 502.167 139.803 499.955 137.409C497.742 134.985 494.697 133.773 490.818 133.773C488.212 133.773 485.909 134.333 483.909 135.454C481.939 136.576 480.394 138.212 479.273 140.364C478.182 142.485 477.621 145.045 477.591 148.045Z" fill="#281A15"/>
<path d="M423.375 158.682V118.591H442.739V188.409H424.148V175.727H423.42C421.845 179.818 419.224 183.106 415.557 185.591C411.92 188.076 407.481 189.318 402.239 189.318C397.572 189.318 393.466 188.257 389.92 186.136C386.375 184.015 383.602 181 381.602 177.091C379.633 173.182 378.633 168.5 378.602 163.045V118.591H397.966V159.591C397.996 163.712 399.102 166.97 401.284 169.364C403.466 171.757 406.39 172.954 410.057 172.954C412.39 172.954 414.572 172.424 416.602 171.364C418.633 170.273 420.269 168.667 421.511 166.545C422.784 164.424 423.405 161.803 423.375 158.682Z" fill="#281A15"/>
<path d="M324.261 189.727C319.807 189.727 315.837 188.954 312.352 187.409C308.867 185.833 306.11 183.515 304.08 180.454C302.08 177.364 301.08 173.515 301.08 168.909C301.08 165.03 301.792 161.773 303.216 159.136C304.64 156.5 306.58 154.379 309.034 152.773C311.489 151.167 314.277 149.954 317.398 149.136C320.549 148.318 323.852 147.742 327.307 147.409C331.367 146.985 334.64 146.591 337.125 146.227C339.61 145.833 341.413 145.258 342.534 144.5C343.655 143.742 344.216 142.621 344.216 141.136V140.864C344.216 137.985 343.307 135.758 341.489 134.182C339.701 132.606 337.155 131.818 333.852 131.818C330.367 131.818 327.595 132.591 325.534 134.136C323.474 135.651 322.11 137.561 321.443 139.864L303.534 138.409C304.443 134.167 306.231 130.5 308.898 127.409C311.564 124.288 315.004 121.894 319.216 120.227C323.458 118.53 328.367 117.682 333.943 117.682C337.822 117.682 341.534 118.136 345.08 119.045C348.655 119.954 351.822 121.364 354.58 123.273C357.367 125.182 359.564 127.636 361.171 130.636C362.777 133.606 363.58 137.167 363.58 141.318V188.409H345.216V178.727H344.671C343.549 180.909 342.049 182.833 340.171 184.5C338.292 186.136 336.034 187.424 333.398 188.364C330.761 189.273 327.716 189.727 324.261 189.727ZM329.807 176.364C332.655 176.364 335.171 175.803 337.352 174.682C339.534 173.53 341.246 171.985 342.489 170.045C343.731 168.106 344.352 165.909 344.352 163.454V156.045C343.746 156.439 342.913 156.803 341.852 157.136C340.822 157.439 339.655 157.727 338.352 158C337.049 158.242 335.746 158.47 334.443 158.682C333.14 158.864 331.958 159.03 330.898 159.182C328.625 159.515 326.64 160.045 324.943 160.773C323.246 161.5 321.928 162.485 320.989 163.727C320.049 164.939 319.58 166.454 319.58 168.273C319.58 170.909 320.534 172.924 322.443 174.318C324.383 175.682 326.837 176.364 329.807 176.364Z" fill="#281A15"/>
<path d="M232.091 188.409V95.3181H251.773V172.182H291.682V188.409H232.091Z" fill="#281A15"/>
<defs>
<linearGradient id="paint0_linear_2002_23" x1="147.411" y1="155.873" x2="102.567" y2="246.281" gradientUnits="userSpaceOnUse">
<stop stop-color="#481403"/>
<stop offset="1" stop-color="#B9502A"/>
</linearGradient>
<linearGradient id="paint1_linear_2002_23" x1="147.411" y1="155.873" x2="102.567" y2="246.281" gradientUnits="userSpaceOnUse">
<stop stop-color="#481403"/>
<stop offset="1" stop-color="#B9502A"/>
</linearGradient>
<linearGradient id="paint2_linear_2002_23" x1="147.411" y1="155.873" x2="102.567" y2="246.281" gradientUnits="userSpaceOnUse">
<stop stop-color="#481403"/>
<stop offset="1" stop-color="#B9502A"/>
</linearGradient>
</defs>
</svg>
